<mxfile host="app.diagrams.net" modified="2024-05-21T08:09:14.902Z" agent="Mozilla/5.0 (Windows NT 10.0; Win64; x64) AppleWebKit/537.36 (KHTML, like Gecko) Chrome/124.0.0.0 Safari/537.36" etag="z064IDd1LYvjMOKC4yWz" version="24.4.4" type="github">
  <diagram name="第 1 页" id="hqmDNaqgpVp4OsvsETol">
    <mxGraphModel dx="989" dy="538" grid="1" gridSize="10" guides="1" tooltips="1" connect="1" arrows="1" fold="1" page="1" pageScale="1" pageWidth="827" pageHeight="1169" math="0" shadow="0">
      <root>
        <mxCell id="0" />
        <mxCell id="1" parent="0" />
        <mxCell id="Q9zDN7n71QJGZJ4GGURO-7" value="数据管理和工作流程自动化业务" style="rounded=0;whiteSpace=wrap;html=1;" vertex="1" parent="1">
          <mxGeometry x="80" y="420" width="400" height="40" as="geometry" />
        </mxCell>
        <mxCell id="Q9zDN7n71QJGZJ4GGURO-10" value="" style="rounded=0;whiteSpace=wrap;html=1;" vertex="1" parent="1">
          <mxGeometry x="80" y="140" width="400" height="280" as="geometry" />
        </mxCell>
        <mxCell id="Q9zDN7n71QJGZJ4GGURO-15" value="&lt;h1 style=&quot;margin-top: 0px; line-height: 100%;&quot;&gt;&lt;span style=&quot;font-size: 20px;&quot;&gt;功能&lt;/span&gt;&lt;/h1&gt;&lt;p style=&quot;line-height: 100%;&quot;&gt;数据存储（数据建模）&lt;/p&gt;&lt;p style=&quot;line-height: 100%;&quot;&gt;数据采集（表单）&lt;/p&gt;&lt;p style=&quot;line-height: 100%;&quot;&gt;数据审核（流程）&lt;/p&gt;&lt;p style=&quot;line-height: 100%;&quot;&gt;数据展示（表格/页面）&lt;/p&gt;" style="text;html=1;whiteSpace=wrap;overflow=hidden;rounded=0;" vertex="1" parent="1">
          <mxGeometry x="600" y="50" width="180" height="280" as="geometry" />
        </mxCell>
        <mxCell id="Q9zDN7n71QJGZJ4GGURO-16" value="" style="rounded=0;whiteSpace=wrap;html=1;" vertex="1" parent="1">
          <mxGeometry x="80" y="330" width="400" height="90" as="geometry" />
        </mxCell>
        <mxCell id="Q9zDN7n71QJGZJ4GGURO-12" value="&lt;h1 style=&quot;margin-top: 0px; line-height: 10%;&quot;&gt;&lt;font style=&quot;font-size: 12px;&quot;&gt;项目&lt;/font&gt;&lt;/h1&gt;&lt;p style=&quot;line-height: 100%;&quot;&gt;&lt;font color=&quot;#3333ff&quot;&gt;数字工程云平台，&lt;/font&gt;&lt;span style=&quot;color: rgb(51, 51, 255); background-color: initial;&quot;&gt;智慧征地移民云平台，&lt;/span&gt;&lt;span style=&quot;color: rgb(51, 51, 255); background-color: initial;&quot;&gt;全过程填报与管理系统&lt;/span&gt;&lt;/p&gt;&lt;p style=&quot;line-height: 100%;&quot;&gt;数字孪生流域平台，&lt;span style=&quot;background-color: initial;&quot;&gt;地质灾害监测平台，&lt;/span&gt;&lt;span style=&quot;background-color: initial;&quot;&gt;物联网工程平台，&lt;/span&gt;&lt;span style=&quot;background-color: initial;&quot;&gt;砂石骨料系统，&lt;/span&gt;&lt;span style=&quot;background-color: initial;&quot;&gt;土壤治理系统，&lt;/span&gt;&lt;span style=&quot;background-color: initial;&quot;&gt;合同台账，&lt;/span&gt;&lt;b style=&quot;background-color: initial;&quot;&gt;...&lt;/b&gt;&lt;/p&gt;" style="text;html=1;whiteSpace=wrap;overflow=hidden;rounded=0;" vertex="1" parent="1">
          <mxGeometry x="330" y="190" width="400" height="110" as="geometry" />
        </mxCell>
      </root>
    </mxGraphModel>
  </diagram>
</mxfile>
